<svg xmlns="http://www.w3.org/2000/svg" id="Layer_1" data-name="Layer 1" viewBox="0 0 400.32 400"><defs><style>.cls-1{fill:#293a6a}.cls-2,.cls-4{fill:#e78734}.cls-3{fill:#e68732}.cls-4{font-size:24px;font-family:Arial-Black,Arial;font-weight:800;letter-spacing:0}.cls-5,.cls-6{letter-spacing:-.02em}.cls-7{letter-spacing:0}.cls-8{letter-spacing:-.03em}.cls-9{fill:#fff}.cls-10{fill:none;stroke:#293a6a;stroke-miterlimit:10}</style></defs><path d="M321.91,225.32c-21.44-2.14-42.58-2.08-63.49,2.82,4.68-.53,9.34-1.18,14-1.56A222,222,0,0,1,324,228.69c3.19.49,3.9,1.56,2.53,4.47-2,4.28-4,8.6-5.61,13.05-1.12,3.13-2.82,3.49-5.8,2.85a219.75,219.75,0,0,0-51.71-5.2c-16.61.43-32,5.35-46.76,12.58-1.31.64-2.43,1.3-2.73,3.07-1.39,8.32-8.76,13-17.18,11-6.32-1.49-9.59-4.81-10.39-11a3.48,3.48,0,0,0-2.29-2.94c-12-5.82-24.38-10.41-37.68-11.92-20.26-2.31-40.25.13-60.06,4.26-3.87.8-6,.36-7.32-3.69a118.16,118.16,0,0,0-5.28-12.39c-1.19-2.6-.52-3.63,2.33-4.06,20.9-3.16,41.8-4.06,62.78-.9a13.35,13.35,0,0,0,3.22.18c-20.94-4.79-42.12-4.83-63.43-3,5.92-2.29,12.16-3.14,18.35-3.91a150.31,150.31,0,0,1,53.55,2.57c17.27,4.11,33.08,11.27,46.75,22.74,2.21,1.86,3.7,1.8,5.89,0,18.24-15.17,39.57-22.76,62.88-25.54,17.68-2.11,35.14-.8,52.48,2.91C319.66,224,321,223.91,321.91,225.32Z" class="cls-1"/><path d="M142,119.13c-1.12-27.95,21-50.27,46.87-54.95,20.78-3.75,39.17,1.19,54.66,15.37a49.31,49.31,0,0,1,16.18,32.54c1.67,17.68-3.12,33.56-12.73,48.28a184.54,184.54,0,0,1-14.38,18.76A23.06,23.06,0,0,0,226.92,193c-.08,1.37-.18,2.94-2,2.93s-1.94-1.66-2-3c-.4-7.74,3.43-13.56,8.28-19.14,9.43-10.88,17.85-22.46,21.86-36.6,3.17-11.2,3.92-22.53.4-33.75-5.37-17.08-17.32-28.14-34-33.26-22.86-7-43.55-2.6-60.47,15-7.54,7.86-11.47,17.5-12.39,28.48-1.72,20.44,6.24,37.42,18.34,53,2.31,3,4.67,5.91,7.2,8.69a27.56,27.56,0,0,1,7,14.56,8.29,8.29,0,0,1-.21,4.31c-.37,1-1,1.76-2.12,1.67a1.85,1.85,0,0,1-1.7-2c.29-9.39-6.09-15.27-11.38-21.67-10.79-13.05-18.93-27.35-21.23-44.42C142.11,125,142.14,122,142,119.13Z" class="cls-2"/><path d="M200.29,211.13c-6.79,0-13.58.05-20.37,0-3.83,0-5.95-1.77-6.1-4.77-.15-3.15,2-5.48,5.88-5.52q20.55-.21,41.1,0c3.55,0,5.83,2.47,5.82,5.32s-2.31,4.93-6,5C213.87,211.2,207.08,211.14,200.29,211.13Z" class="cls-1"/><path d="M200.2,222.76c-4.73,0-9.46.05-14.2,0-3.86-.05-5.9-1.75-6-4.84s2-5.47,5.87-5.53q14.37-.21,28.77,0c4,.06,6,2.2,5.85,5.49-.1,3-2.19,4.8-6,4.87C209.68,222.82,204.94,222.75,200.2,222.76Z" class="cls-1"/><path d="M200.37,223.74c2.19,0,4.37-.07,6.55,0,2.81.11,4.63,1.61,5,4.39a4.74,4.74,0,0,1-4.06,5.6,47.68,47.68,0,0,1-15.22.1c-2.84-.4-4.29-2.68-4-5.63s2.07-4.3,4.87-4.41c2.3-.09,4.61,0,6.91,0Z" class="cls-1"/><polygon points="185.75 94.31 179.68 93.51 175.58 98.06 174.46 92.04 168.87 89.54 174.25 86.62 174.9 80.53 179.34 84.75 185.33 83.48 182.69 89 185.75 94.31" class="cls-3"/><polygon points="207.51 91.83 202.13 88.91 196.67 91.69 197.78 85.67 193.45 81.34 199.52 80.53 202.3 75.07 204.94 80.6 211 81.56 206.55 85.78 207.51 91.83" class="cls-3"/><polygon points="227.25 96.43 223.07 91.95 217.01 92.86 219.98 87.5 217.24 82.02 223.26 83.18 227.63 78.89 228.38 84.97 233.81 87.79 228.26 90.39 227.25 96.43" class="cls-2"/><text class="cls-4" transform="translate(55.71 304.67)">P<tspan x="17.26" y="0" class="cls-5">R</tspan><tspan x="35.45" y="0">OFICIENT INFINITE</tspan><tspan x="-30.95" y="25">TECHNO</tspan><tspan x="81.92" y="25" class="cls-6">L</tspan><tspan x="97.45" y="25" class="cls-7">OGY SO</tspan><tspan x="201" y="25" class="cls-8">L</tspan><tspan x="216.31" y="25" class="cls-7">UTIONS</tspan></text><path d="M223.52,146.52h-45.6c.72-4.12,3.76-8.82,8-9.53a1.9,1.9,0,0,0,1.31-1,19.09,19.09,0,0,0,1-4.9c0-2.69-.28-5.38-.48-8.07-.34-4.57.13-9,2.59-13a10,10,0,0,1,9.47-4.91,33.59,33.59,0,0,1,4,.18c4.43.77,7,3.7,8.4,7.74a25,25,0,0,1,.92,11.89,26.06,26.06,0,0,0,.11,9.36,6.86,6.86,0,0,0,.73,1.87,1.6,1.6,0,0,0,1,.8,9.16,9.16,0,0,1,6.63,5.14C222.34,143.47,222.86,145,223.52,146.52ZM209.44,122a5.11,5.11,0,0,1-.47-.21l-11.77-6.06a3.06,3.06,0,0,0-4.27.94,22.67,22.67,0,0,0-1.58,3.55,4.69,4.69,0,0,1-.42.8c-.25.37-.78.73-.76,1.08a14.8,14.8,0,0,0,.49,2.94c.08.3.47.52.73.78s.63.45.74.76a15.76,15.76,0,0,0,3.29,5.28c3.11,3.31,7,3.38,10.2.19A15.39,15.39,0,0,0,209,127c.14-.34.21-.89.46-1,1.8-.69,1.62-2.27,1.7-3.71a4.56,4.56,0,0,0-.44-1.35Zm-14.83,11.88a14.94,14.94,0,0,1-1.69,1.88c-.92.74-1,.9-.19,1.74a11,11,0,0,0,15.77-.12,2.7,2.7,0,0,0,.46-.8l-2.34-2.68C202.76,137.22,199,137.72,194.61,133.91Z" class="cls-1"/><path d="M200.47,179.7H180.92c-.61,0-1.25,0-1.28-.79s.61-.9,1.28-.9h38.9a2.55,2.55,0,0,1,1,.06c.29.14.69.5.67.72a1.15,1.15,0,0,1-.66.82,8.77,8.77,0,0,1-1.92.09H200.47Z" class="cls-1"/><path d="M209.44,122l1.26-1.1a4.56,4.56,0,0,1,.44,1.35c-.08,1.44.1,3-1.7,3.71-.25.09-.32.64-.46,1a15.39,15.39,0,0,1-3.36,5.11c-3.24,3.19-7.09,3.12-10.2-.19a15.76,15.76,0,0,1-3.29-5.28c-.11-.31-.49-.51-.74-.76s-.65-.48-.73-.78a14.8,14.8,0,0,1-.49-2.94c0-.35.51-.71.76-1.08a4.69,4.69,0,0,0,.42-.8,22.67,22.67,0,0,1,1.58-3.55,3.06,3.06,0,0,1,4.27-.94L209,121.82A5.11,5.11,0,0,0,209.44,122Z" class="cls-9"/><path d="M200.67,148.8h21.78c2.31,0,3.57,1.43,3.18,3.71q-1.77,10.52-3.6,21a3,3,0,0,1-3.31,2.74H197.54c-4.89,0-9.79,0-14.69,0-2.39,0-3.41-.8-3.8-3.11q-1.8-10.41-3.56-20.82a2.92,2.92,0,0,1,3-3.54c7.39,0,14.79,0,22.19,0Zm1.65,13.39a1.77,1.77,0,0,0-1.78-1.8,1.74,1.74,0,0,0-1.69,1.66,1.74,1.74,0,1,0,3.47.14Z" class="cls-10"/></svg>